# xmcd
#
# Track frame offsets:
#	150
#	16271
#	36958
#	55858
#	77692
#	96563
#	124687
#	142969
#	159581
#	182908
#
# Disc length: 2650 seconds
#
# Revision: 1
# Processed by: cddbd v1.5.2PL0 Copyright (c) Steve Scherf et al.
# Submitted via: audiograbber 1.83.01
#
DISCID=800a580a
DTITLE=Ezra Charles - King of Texas Blues
DYEAR=1900
DGENRE=
TTITLE0=Night Life
TTITLE1=Red Beans
TTITLE2=Come Back to Me
TTITLE3=Blues Lover
TTITLE4=Setting Sun
TTITLE5=Got My Mojo Working
TTITLE6=Put the Blame On Me
TTITLE7=Praying Man
TTITLE8=Drown In My Own Tears
TTITLE9=In the Night
EXTD=
EXTT0=
EXTT1=
EXTT2=
EXTT3=
EXTT4=
EXTT5=
EXTT6=
EXTT7=
EXTT8=
EXTT9=
PLAYORDER=
